<?xml version="1.0" encoding="UTF-8"?>
<svg id="Capa_2" data-name="Capa 2" xmlns="http://www.w3.org/2000/svg" viewBox="0 0 293.18 142.93">
  <defs>
    <style>
      .cls-1 {
        fill: #fff;
      }

      .cls-2 {
        fill: #e84922;
      }
    </style>
  </defs>
  <g id="Capa_1-2" data-name="Capa 1">
    <g>
      <path class="cls-2" d="M293.18,71.46c0,39.47-31.99,71.46-71.46,71.46s-71.46-32-71.46-71.46S182.25,0,221.72,0s71.46,32,71.46,71.46"/>
      <rect x="0" y="57.4" width="4.48" height="28.57"/>
      <path d="M9.9,85.97v-20.56h4.08v3.49c.73-1.22,1.69-2.16,2.87-2.82,1.18-.67,2.45-1,3.8-1,1.77,0,3.2.54,4.27,1.61,1.07,1.08,1.61,2.6,1.61,4.56v14.72h-4.08v-13.4c0-2.5-1.07-3.75-3.2-3.75-1.41,0-2.64.8-3.69,2.38-1.05,1.59-1.58,3.73-1.58,6.43v8.34h-4.08Z"/>
      <polygon points="29.51 65.41 34 65.41 38.47 80.09 42.94 65.41 47.42 65.41 40.46 85.97 36.48 85.97 29.51 65.41"/>
      <path d="M48.25,79.41c-.38-1.21-.58-2.45-.58-3.73s.19-2.52.58-3.74c.38-1.21.94-2.34,1.67-3.39.73-1.04,1.73-1.89,3-2.53,1.27-.64,2.72-.97,4.35-.97s3,.3,4.24.91c1.25.61,2.24,1.39,2.97,2.37.73.98,1.29,2.04,1.67,3.18.39,1.14.58,2.31.58,3.51v1.83h-14.58c0,1.61.45,2.96,1.35,4.04.9,1.09,2.15,1.63,3.75,1.63,1.14,0,2.19-.31,3.16-.92.96-.61,1.7-1.46,2.22-2.55l3.62,1.43c-1.04,2.02-2.23,3.49-3.59,4.4-1.35.92-3.16,1.38-5.42,1.38-1.63,0-3.08-.32-4.35-.96-1.27-.64-2.26-1.48-2.99-2.53-.73-1.05-1.28-2.18-1.67-3.39M52.24,73.32h9.98c-.18-1.28-.7-2.35-1.54-3.21-.84-.86-1.98-1.29-3.42-1.29-1.35,0-2.47.42-3.35,1.25-.88.83-1.43,1.92-1.67,3.25"/>
      <path d="M69.09,80.79l3.59-1.95c1.09,2.47,2.6,3.71,4.52,3.71s2.78-.9,2.79-2.69c0-.36-.08-.67-.25-.93-.17-.26-.44-.51-.82-.74-.38-.23-.72-.42-1.04-.55-.31-.13-.77-.32-1.38-.55-.61-.23-1.08-.42-1.41-.55-2.93-1.22-4.4-3.11-4.4-5.65,0-1.63.6-3.01,1.79-4.13,1.2-1.12,2.7-1.69,4.52-1.69,1.23,0,2.38.29,3.44.87,1.06.58,1.91,1.37,2.55,2.38l-2.61,2.37c-.98-1.25-2.17-1.88-3.57-1.88-.57,0-1.05.18-1.44.53-.39.35-.59.85-.59,1.51s.29,1.18.88,1.6c.58.41,1.51.86,2.79,1.36.7.27,1.26.49,1.68.67.41.18.91.45,1.47.82s1.01.73,1.31,1.1c.3.37.58.84.82,1.43.24.59.36,1.24.36,1.96,0,1.82-.64,3.36-1.93,4.62-1.29,1.26-2.99,1.89-5.1,1.89-1.95,0-3.61-.54-4.97-1.62-1.36-1.08-2.35-2.38-2.98-3.88"/>
      <path d="M85.24,69.16v-3.74h3.59v-5.68l4.08-2.65v8.33h5.5v3.74h-5.5v10.04c0,2.23.91,3.35,2.73,3.35.68,0,1.34-.19,1.97-.58l1.1,3.61c-1.01.49-2.11.73-3.31.72-2.03,0-3.64-.62-4.81-1.85-1.18-1.23-1.76-3.06-1.76-5.48v-9.8h-3.59Z"/>
      <path d="M112.11,61.66c-.6-.56-.9-1.24-.9-2.05s.31-1.51.92-2.1c.61-.59,1.31-.89,2.1-.89s1.46.3,2.02.89c.56.59.84,1.29.84,2.1s-.28,1.49-.82,2.05c-.55.56-1.23.84-2.04.84s-1.52-.28-2.12-.84M112.19,65.41h4.08v20.56h-4.08v-20.56Z"/>
      <path d="M120.73,85.97v-20.56h4.08v3.49c.73-1.22,1.69-2.16,2.86-2.82s2.45-1,3.8-1c1.77,0,3.2.54,4.27,1.61,1.07,1.08,1.61,2.6,1.61,4.56v14.72h-4.08v-13.4c0-2.5-1.07-3.75-3.2-3.75-1.41,0-2.64.8-3.69,2.38-1.05,1.59-1.58,3.73-1.58,6.43v8.34h-4.08Z"/>
      <path class="cls-1" d="M162.69,85.97v-28.57h10.1c2.45,0,4.39.65,5.84,1.94,1.45,1.3,2.17,3.14,2.17,5.53,0,1.11-.27,2.2-.82,3.27-.54,1.06-1.24,1.81-2.09,2.25,1.32.57,2.37,1.49,3.13,2.77.77,1.28,1.15,2.74,1.15,4.4,0,2.67-.79,4.74-2.36,6.21-1.57,1.47-3.77,2.2-6.58,2.2h-10.54ZM167.17,68.68h5.22c2.62,0,3.93-1.17,3.93-3.52s-1.31-3.52-3.93-3.52h-5.22v7.03ZM167.17,81.73h5.5c3.35,0,5.02-1.47,5.02-4.4s-1.67-4.4-5.02-4.4h-5.5v8.8Z"/>
      <path class="cls-1" d="M187.73,83.23c-1.83-2.04-2.75-4.56-2.75-7.55s.92-5.51,2.75-7.55c1.83-2.04,4.29-3.06,7.37-3.06s5.54,1.02,7.37,3.06c1.83,2.04,2.75,4.55,2.75,7.55s-.92,5.51-2.75,7.55c-1.83,2.04-4.29,3.06-7.37,3.06s-5.54-1.02-7.37-3.06M190.95,70.84c-.99,1.35-1.49,2.96-1.49,4.84s.49,3.49,1.49,4.84c.99,1.35,2.37,2.02,4.14,2.02s3.15-.67,4.15-2.02c1-1.35,1.5-2.96,1.5-4.84s-.5-3.49-1.5-4.84c-1-1.35-2.38-2.02-4.15-2.02s-3.15.67-4.14,2.02"/>
      <path class="cls-1" d="M207.45,87.81c0-1.67.58-3.04,1.75-4.11-.81-.78-1.22-1.85-1.22-3.2,0-1.82.84-3.21,2.53-4.17-.93-1.15-1.39-2.59-1.39-4.34,0-2.1.69-3.77,2.07-5.03,1.38-1.26,3.13-1.88,5.25-1.88,1.36,0,2.61.3,3.75.89l3.78-2.03,1.71,3.06-2.8,1.54c.59,1.04.89,2.18.9,3.43,0,2.13-.69,3.81-2.07,5.05-1.38,1.24-3.14,1.86-5.29,1.86-1.17,0-2.28-.2-3.32-.61-.71.42-1.06,1.02-1.06,1.81,0,1.08.69,1.62,2.08,1.62h4.54c2.12,0,3.82.49,5.08,1.49,1.27.99,1.9,2.43,1.9,4.32,0,2.4-.88,4.19-2.64,5.36-1.76,1.17-3.94,1.76-6.53,1.76s-4.86-.59-6.53-1.76c-1.67-1.18-2.5-2.86-2.5-5.05M211.53,87.57c0,1.02.44,1.83,1.32,2.42.88.59,2.09.88,3.63.88s2.63-.27,3.45-.8c.83-.54,1.24-1.29,1.24-2.26,0-1.72-1.13-2.57-3.39-2.57h-3.3c-.72,0-1.41-.04-2.07-.12-.59.62-.89,1.43-.89,2.46M214.1,69.54c-.6.61-.9,1.43-.9,2.43s.3,1.82.9,2.43c.6.61,1.38.92,2.34.92s1.78-.31,2.38-.92c.6-.61.9-1.43.9-2.43s-.3-1.82-.9-2.43c-.6-.61-1.39-.92-2.38-.92s-1.74.31-2.34.92"/>
      <path class="cls-1" d="M229.63,83.23c-1.83-2.04-2.75-4.56-2.75-7.55s.92-5.51,2.75-7.55c1.83-2.04,4.29-3.06,7.37-3.06s5.54,1.02,7.37,3.06c1.83,2.04,2.75,4.55,2.75,7.55s-.92,5.51-2.75,7.55c-1.83,2.04-4.29,3.06-7.37,3.06s-5.54-1.02-7.37-3.06M232.85,70.84c-.99,1.35-1.49,2.96-1.49,4.84s.49,3.49,1.49,4.84c.99,1.35,2.37,2.02,4.14,2.02s3.15-.67,4.15-2.02c1-1.35,1.5-2.96,1.5-4.84s-.5-3.49-1.5-4.84c-1-1.35-2.38-2.02-4.15-2.02s-3.15.67-4.14,2.02"/>
      <path class="cls-1" d="M247.86,69.16v-3.74h3.59v-5.68l4.08-2.65v8.33h5.5v3.74h-5.5v10.04c0,2.23.91,3.35,2.73,3.35.68,0,1.33-.19,1.97-.58l1.1,3.61c-1.01.49-2.11.73-3.31.72-2.03,0-3.64-.62-4.81-1.85-1.18-1.23-1.76-3.06-1.76-5.48v-9.8h-3.59Z"/>
      <path class="cls-1" d="M263.51,80.05c0-2.1.82-3.75,2.45-4.94,1.63-1.2,3.79-1.79,6.45-1.79h3.55v-.9c0-1.23-.38-2.13-1.12-2.72-.75-.59-1.71-.88-2.88-.88-1.87,0-3.15.91-3.82,2.74l-3.88-.82c.44-1.74,1.35-3.11,2.74-4.14,1.39-1.02,3.06-1.53,5.01-1.53,5.37,0,8.05,2.71,8.05,8.13v12.77h-3.59l-.32-2.69c-1.44,2.02-3.55,3.02-6.33,3.01-1.81,0-3.32-.53-4.51-1.58-1.2-1.06-1.79-2.61-1.79-4.65M267.99,80.05c0,.73.22,1.33.66,1.79.44.46,1.08.7,1.91.7,1.45,0,2.71-.46,3.78-1.36,1.08-.91,1.61-2.19,1.61-3.85v-.46h-3.72c-1.3,0-2.33.29-3.1.86-.76.57-1.14,1.35-1.14,2.33M268.85,63.12l2.79-6.04h5.58l-5.1,6.04h-3.27Z"/>
    </g>
  </g>
</svg>